<?xml version="1.0" encoding="UTF-8" standalone="no"?><!-- Generator: Gravit.io --><svg xmlns="http://www.w3.org/2000/svg" xmlns:xlink="http://www.w3.org/1999/xlink" style="isolation:isolate" viewBox="0 0 100 100" width="100pt" height="100pt"><defs><clipPath id="_clipPath_6DaS4ydgcWjJPPp20wgcufGjV1kA0Rme"><rect width="100" height="100"/></clipPath></defs><g clip-path="url(#_clipPath_6DaS4ydgcWjJPPp20wgcufGjV1kA0Rme)"><rect width="100" height="100" style="fill:rgb(3,33,79)"/><g><path d=" M 37.776 44.459 C 36.676 44.459 35.772 45.428 35.772 46.636 L 35.772 62.258 C 35.772 62.577 36.004 62.829 36.297 62.829 L 39.255 62.829 C 39.549 62.829 39.781 62.577 39.781 62.258 L 39.781 46.636 C 39.781 45.428 38.889 44.459 37.776 44.459 Z " fill="rgb(255,255,255)"/><path d=" M 27.069 44.472 C 24.612 44.472 22.913 45.574 21.654 47.684 C 19.979 43.384 14.271 43.477 11.899 47.432 C 11.533 45.746 10.151 44.499 8.501 44.499 L 8 44.499 C 8 47.83 8 58.409 8 62.258 C 8 62.577 8.232 62.829 8.526 62.829 L 11.484 62.829 C 11.777 62.829 12.009 62.577 12.009 62.258 L 12.009 52.781 C 12.009 50.392 13.06 48.083 15.236 48.083 C 17.265 48.083 18.243 49.489 18.243 52.383 L 18.243 62.245 C 18.243 62.563 18.475 62.816 18.769 62.816 L 21.727 62.816 C 22.02 62.816 22.253 62.563 22.253 62.245 L 22.253 52.781 C 22.253 50.512 23.426 48.083 25.479 48.083 C 28.01 48.083 28.523 49.941 28.523 52.728 L 28.523 62.258 C 28.523 62.577 28.755 62.829 29.049 62.829 L 32.019 62.829 C 32.312 62.829 32.545 62.577 32.545 62.258 L 32.545 51.799 C 32.532 47.366 31.09 44.472 27.069 44.472 Z " fill="rgb(255,255,255)"/><path d=" M 46.638 45.282 C 45.942 44.26 44.572 44.101 43.68 44.977 C 42.91 45.746 42.849 47.047 43.472 47.963 L 47.494 53.817 L 43.448 59.723 C 42.825 60.639 42.873 61.94 43.656 62.709 C 44.548 63.585 45.917 63.426 46.614 62.404 L 52.261 54.162 C 52.395 53.963 52.395 53.684 52.261 53.485 L 46.638 45.282 Z " fill="rgb(255,255,255)"/><path d=" M 59.033 45.282 C 59.73 44.26 61.099 44.101 61.991 44.977 C 62.761 45.746 62.822 47.047 62.199 47.963 L 58.177 53.817 L 62.223 59.723 C 62.847 60.639 62.798 61.94 62.015 62.709 C 61.123 63.585 59.754 63.426 59.057 62.404 L 53.422 54.148 C 53.288 53.949 53.288 53.671 53.422 53.471 L 59.033 45.282 Z " fill="rgb(31,186,237)"/><path d=" M 69.802 49.091 C 70.498 48.335 71.317 47.95 72.259 47.95 C 73.285 47.95 74.092 48.295 74.667 48.985 C 75.204 49.649 75.498 50.604 75.522 51.852 L 68.518 51.852 C 68.714 50.737 69.154 49.808 69.802 49.091 Z  M 76.292 59.444 C 76.17 59.272 75.962 59.205 75.779 59.272 C 75.779 59.272 75.779 59.272 75.779 59.272 C 73.689 60.055 68.86 60.519 68.506 55.21 L 77.747 55.21 C 78.737 55.21 79.531 54.347 79.531 53.272 C 79.531 50.87 79.128 48.547 77.625 46.755 C 73.945 42.335 64.399 44.008 64.399 54.029 C 64.399 64.422 73.346 64.196 77.405 62.179 C 77.71 62.033 77.796 61.608 77.6 61.329 L 76.292 59.444 Z " fill="rgb(31,186,237)"/><path d=" M 91.62 44.738 L 91.62 44.738 C 90.911 44.525 89.762 44.578 89.396 44.658 C 87.966 45.123 86.914 46.184 86.279 47.791 C 86.059 45.932 84.592 44.499 82.82 44.499 L 82.306 44.499 C 82.306 47.83 82.306 58.422 82.306 62.258 C 82.306 62.577 82.538 62.829 82.832 62.829 L 85.79 62.829 C 86.083 62.829 86.315 62.577 86.315 62.258 L 86.315 53.657 C 86.315 50.1 88.161 47.605 91.29 48.866 C 91.633 48.998 91.999 48.733 91.999 48.335 L 91.999 45.295 C 92.012 45.043 91.84 44.804 91.62 44.738 Z " fill="rgb(31,186,237)"/><path d=" M 35.637 39.044 C 35.637 40.331 36.603 41.366 37.788 41.366 C 38.974 41.366 39.928 40.318 39.928 39.044 C 39.928 37.769 38.962 36.721 37.776 36.721 C 36.591 36.721 35.637 37.769 35.637 39.044 Z " fill="rgb(255,255,255)"/></g></g></svg>