<?xml version="1.0" encoding="UTF-8" standalone="no"?><!-- Generator: Gravit.io --><svg xmlns="http://www.w3.org/2000/svg" xmlns:xlink="http://www.w3.org/1999/xlink" style="isolation:isolate" viewBox="0 0 100 100" width="100pt" height="100pt"><defs><clipPath id="_clipPath_b80ALOAzJamuL700izolTd6K99zv6IEF"><rect width="100" height="100"/></clipPath></defs><g clip-path="url(#_clipPath_b80ALOAzJamuL700izolTd6K99zv6IEF)"><clipPath id="_clipPath_zv62KC6ikreijOxgujdOqNAnw0XoI7uW"><rect x="0" y="0" width="100" height="100" transform="matrix(1,0,0,1,0,0)" fill="rgb(255,255,255)"/></clipPath><g clip-path="url(#_clipPath_zv62KC6ikreijOxgujdOqNAnw0XoI7uW)"><g><clipPath id="_clipPath_0OzUrMg4en64zEcfaxmfnTKJM3kTEuCQ"><rect x="0" y="0" width="100" height="100" transform="matrix(1,0,0,1,0,0)" fill="rgb(255,255,255)"/></clipPath><g clip-path="url(#_clipPath_0OzUrMg4en64zEcfaxmfnTKJM3kTEuCQ)"><g><g><rect x="0" y="0" width="100" height="100" transform="matrix(1,0,0,1,0,0)" fill="rgb(3,33,79)"/><g><path d=" M 27.641 19.116 C 25.131 15.429 20.188 14.855 16.971 18.016 C 14.193 20.79 13.973 25.484 16.22 28.788 L 30.73 49.906 L 16.134 71.212 C 13.886 74.516 14.059 79.21 16.884 81.984 C 20.102 85.145 25.04 84.571 27.555 80.884 L 47.927 51.151 C 48.41 50.433 48.41 49.427 47.927 48.709 L 27.641 19.116 Z " fill="rgb(255,255,255)"/><path d=" M 72.356 19.116 C 74.872 15.429 79.81 14.855 83.028 18.016 C 85.805 20.79 86.026 25.484 83.778 28.788 L 69.269 49.906 L 83.865 71.212 C 86.116 74.516 85.939 79.21 83.115 81.984 C 79.896 85.145 74.957 84.571 72.443 80.884 L 52.115 51.1 C 51.632 50.382 51.632 49.38 52.115 48.658 L 72.356 19.116 Z " fill="rgb(31,186,237)"/></g></g></g></g></g></g></g></svg>